<svg id="megaphone_plus" xmlns="http://www.w3.org/2000/svg" xmlns:xlink="http://www.w3.org/1999/xlink" width="24" height="24" viewBox="0 0 16 16">
  <defs>
    <clipPath id="clip-path">
      <rect id="Rectangle_157212" data-name="Rectangle 157212" width="14" height="14" fill="#fff" opacity="0"/>
    </clipPath>
  </defs>
  <rect id="Rectangle_157211" data-name="Rectangle 157211" width="16" height="16" fill="#fff" opacity="0"/>
  <g id="Group_91248" data-name="Group 91248" clip-path="url(#clip-path)">
    <path id="Path_25219" data-name="Path 25219" d="M14.333,12.667h-.667V12a.667.667,0,1,0-1.333,0v.667h-.667a.667.667,0,1,0,0,1.333h.667v.667a.667.667,0,1,0,1.333,0V14h.667a.667.667,0,0,0,0-1.333ZM14.333,2a.669.669,0,0,0-.667.667c0,1.967-2.513,2.667-4.667,2.667H5a2.006,2.006,0,0,0-2,2V8.667a2.006,2.006,0,0,0,2,2h.32l-1.6,3.74a.663.663,0,0,0,.607.927H6.993a.669.669,0,0,0,.613-.407L9.42,10.693a6.288,6.288,0,0,1,1.38.233.644.644,0,0,0,.193.027.667.667,0,0,0,.193-1.307A7.448,7.448,0,0,0,9,9.327H6.993V6.66h2A7.493,7.493,0,0,0,13.66,5.347V9.993a.667.667,0,1,0,1.333,0V2.667A.669.669,0,0,0,14.327,2ZM5,9.333a.669.669,0,0,1-.667-.667V7.333A.669.669,0,0,1,5,6.667h.667V9.333Zm2.987,1.333L6.56,14H5.347l1.427-3.333h1.22Z" transform="translate(-1 -0.667)" fill="#fff"/>
  </g>
</svg>
