<svg id="checkbox_multiple" xmlns="http://www.w3.org/2000/svg" xmlns:xlink="http://www.w3.org/1999/xlink" width="16" height="16" viewBox="0 0 16 16">
  <defs>
    <clipPath id="clip-path">
      <rect id="Rectangle_146316" data-name="Rectangle 146316" width="16" height="16" fill="#fff" opacity="0"/>
    </clipPath>
  </defs>
  <rect id="Rectangle_146315" data-name="Rectangle 146315" width="16" height="16" fill="#fff" opacity="0"/>
  <g id="Group_75617" data-name="Group 75617" clip-path="url(#clip-path)">
    <path id="Path_19668" data-name="Path 19668" d="M10,5.333H4a2,2,0,0,0-2,2v6a2,2,0,0,0,2,2h6a2,2,0,0,0,2-2v-6A2,2,0,0,0,10,5.333Zm.667,8A.667.667,0,0,1,10,14H4a.667.667,0,0,1-.667-.667v-6A.667.667,0,0,1,4,6.667h6a.667.667,0,0,1,.667.667ZM15.333,4v6a2,2,0,0,1-2,2H12V10.667h1.333A.667.667,0,0,0,14,10V4a.667.667,0,0,0-.667-.667h-6A.667.667,0,0,0,6.667,4V5.333H5.333V4a2,2,0,0,1,2-2h6A2,2,0,0,1,15.333,4ZM9.473,9.473l-.86.86-1.28,1.3-.507.507a.667.667,0,0,1-.947,0L4.547,10.807a.669.669,0,0,1,.947-.947l.247.247.613.62L7.08,10,8.527,8.547a.669.669,0,0,1,.947.947Z" transform="translate(-0.667 -0.667)" fill="#fff"/>
  </g>
</svg>
