<svg id="create_dashboard" xmlns="http://www.w3.org/2000/svg" xmlns:xlink="http://www.w3.org/1999/xlink" width="16" height="16" viewBox="0 0 16 16">
  <defs>
    <clipPath id="clip-path">
      <rect id="Rectangle_146321" data-name="Rectangle 146321" width="16" height="16" fill="#fff" opacity="0"/>
    </clipPath>
  </defs>
  <rect id="Rectangle_146320" data-name="Rectangle 146320" width="16" height="16" fill="#fff" opacity="0"/>
  <g id="Group_75620" data-name="Group 75620" clip-path="url(#clip-path)">
    <path id="Path_19670" data-name="Path 19670" d="M7.667,9.667h-4A.667.667,0,0,0,3,10.333v4A.667.667,0,0,0,3.667,15h4a.667.667,0,0,0,.667-.667v-4A.667.667,0,0,0,7.667,9.667Zm-.667,4H4.333V11H7ZM14.333,3h-4a.667.667,0,0,0-.667.667v4a.667.667,0,0,0,.667.667h4A.667.667,0,0,0,15,7.667v-4A.667.667,0,0,0,14.333,3Zm-.667,4H11V4.333h2.667Zm.667,4.667H13V10.333a.667.667,0,1,0-1.333,0v1.333H10.333a.667.667,0,1,0,0,1.333h1.333v1.333a.667.667,0,0,0,1.333,0V13h1.333a.667.667,0,0,0,0-1.333ZM7.667,3h-4A.667.667,0,0,0,3,3.667v4a.667.667,0,0,0,.667.667h4a.667.667,0,0,0,.667-.667v-4A.667.667,0,0,0,7.667,3ZM7,7H4.333V4.333H7Z" transform="translate(-1 -1)" fill="#fff"/>
  </g>
</svg>
