<svg id="store" xmlns="http://www.w3.org/2000/svg" xmlns:xlink="http://www.w3.org/1999/xlink" width="16" height="16" viewBox="0 0 16 16">
  <defs>
    <clipPath id="clip-path">
      <rect id="Rectangle_146319" data-name="Rectangle 146319" width="16" height="16" fill="#fff" opacity="0"/>
    </clipPath>
  </defs>
  <rect id="Rectangle_146318" data-name="Rectangle 146318" width="16" height="16" fill="#fff" opacity="0"/>
  <g id="Group_75619" data-name="Group 75619" clip-path="url(#clip-path)">
    <path id="Path_19669" data-name="Path 19669" d="M15.333,5.866V5.732h0L14,2.4a.733.733,0,0,0-.667-.4H4a.58.58,0,0,0-.6.4L2.067,5.732h0v.133C2,5.932,2,5.932,2,6H2A2.667,2.667,0,0,0,3.333,8.266v6.4A.627.627,0,0,0,4,15.332h9.333A.627.627,0,0,0,14,14.666v-6.4A2.667,2.667,0,0,0,15.333,6h0ZM9.333,14H8V11.332H9.333Zm3.333,0h-2V10.666A.627.627,0,0,0,10,10H7.333a.627.627,0,0,0-.667.667V14h-2V8.666a2.593,2.593,0,0,0,2-.933A2.667,2.667,0,0,0,10.4,8l.267-.267a2.593,2.593,0,0,0,2,.933Zm0-6.667A1.333,1.333,0,0,1,11.333,6,.667.667,0,1,0,10,6,1.333,1.333,0,0,1,7.333,6a.627.627,0,0,0-.667-.667A.627.627,0,0,0,6,6,1.387,1.387,0,0,1,4.733,7.4a1.333,1.333,0,0,1-1.4-1.333L4.467,3.332h8.4L14,6.066A1.367,1.367,0,0,1,12.667,7.332Z" transform="translate(-0.667 -0.666)" fill="#fff"/>
  </g>
</svg>
