<svg id="bike" xmlns="http://www.w3.org/2000/svg" xmlns:xlink="http://www.w3.org/1999/xlink" width="16" height="16" viewBox="0 0 16 16">
  <defs>
    <clipPath id="clip-path">
      <rect id="Rectangle_153462" data-name="Rectangle 153462" width="16" height="16" fill="#009dff" opacity="0"/>
    </clipPath>
  </defs>
  <rect id="Rectangle_153461" data-name="Rectangle 153461" width="16" height="16" fill="#009dff" opacity="0"/>
  <g id="Group_83759" data-name="Group 83759" clip-path="url(#clip-path)">
    <path id="Path_22877" data-name="Path 22877" d="M14.713,10.953,13.707,7.28A1.333,1.333,0,0,0,14.667,6V4.667a1.333,1.333,0,0,0-1.333-1.333h-2A1.333,1.333,0,0,0,10,2H8.667a.667.667,0,1,0,0,1.333H10V8.667a.667.667,0,0,1-.667.667H8.667A.667.667,0,0,1,8,8.667v-2A1.333,1.333,0,0,0,6.667,5.333H3.333A1.333,1.333,0,0,0,2,6.667v6a1.333,1.333,0,0,0,1,1.287A2.667,2.667,0,0,0,7.667,14h2.72a2.667,2.667,0,1,0,4.353-3.047Zm-3.38-6.287h2V6h-2Zm-8,2H6.667V8H3.333Zm2,7.333a1.333,1.333,0,1,1,1.333-1.333A1.333,1.333,0,0,1,5.333,14ZM10,12.667H8a2.667,2.667,0,0,0-4.427-2,2.04,2.04,0,0,0-.24.24V9.333H6.787a2,2,0,0,0,1.88,1.333h.667a2,2,0,0,0,2-2V7.333H12.34l.74,2.7A2.807,2.807,0,0,0,12.667,10,2.667,2.667,0,0,0,10,12.667ZM12.667,14A1.333,1.333,0,1,1,14,12.667,1.333,1.333,0,0,1,12.667,14Z" transform="translate(-0.667 -0.667)" fill="#009dff"/>
  </g>
</svg>
