<svg xmlns="http://www.w3.org/2000/svg" xmlns:xlink="http://www.w3.org/1999/xlink" width="40" height="40" viewBox="0 0 40 40">
  <defs>
    <clipPath id="clip-path">
      <rect id="Rectangle_158859" data-name="Rectangle 158859" width="40" height="40" fill="#e50047" opacity="0"/>
    </clipPath>
  </defs>
  <g id="Group_95234" data-name="Group 95234" clip-path="url(#clip-path)">
    <g id="Group_95233" data-name="Group 95233" opacity="0.15">
      <path id="路径" d="M35.829,4.179C32.057.421,26.629,0,20,0S7.929.429,4.157,4.193,0,13.386,0,20.021.386,32.079,4.157,35.85,13.364,40,20,40s12.071-.379,15.843-4.15S40,26.65,40,20.021,39.614,7.95,35.829,4.179h0Z" fill="#e50047" fill-rule="evenodd"/>
    </g>
    <path id="Path_25850" data-name="Path 25850" d="M23.72,22.643a1.07,1.07,0,0,0-1.071,1.071v3.214a1.071,1.071,0,1,0,2.143,0V23.714A1.07,1.07,0,0,0,23.72,22.643Zm0-3.214A1.071,1.071,0,1,0,24.791,20.5,1.07,1.07,0,0,0,23.72,19.429Zm0-6.429a10.71,10.71,0,0,0-8.293,17.493l-2.143,2.143a1.041,1.041,0,0,0-.014,1.479,1.07,1.07,0,0,0,.807.314H23.72A10.714,10.714,0,1,0,23.72,13Zm0,19.286H16.655l.993-1a1.048,1.048,0,0,0,.321-.757,1.02,1.02,0,0,0-.321-.75A8.545,8.545,0,1,1,23.712,32.3v-.014Z" transform="translate(-3.705 -3.714)" fill="#e50047"/>
  </g>
</svg>
