<svg id="shield_exclamation_solid" xmlns="http://www.w3.org/2000/svg" width="16" height="16" viewBox="0 0 16 16">
  <rect id="Rectangle_153460" data-name="Rectangle 153460" width="16" height="16" fill="#ff6d00" opacity="0"/>
  <g id="Group_83758" data-name="Group 83758" transform="translate(2.667 1.338)">
    <path id="Path_22876" data-name="Path 22876" d="M14.42,3.1a.677.677,0,0,0-.56-.133,5.3,5.3,0,0,1-4.147-.847.685.685,0,0,0-.76,0,5.3,5.3,0,0,1-4.147.847.654.654,0,0,0-.56.133A.692.692,0,0,0,4,3.623V8.589a6,6,0,0,0,2.513,4.887l2.433,1.733a.661.661,0,0,0,.773,0l2.433-1.733a6,6,0,0,0,2.513-4.887V3.623A.692.692,0,0,0,14.42,3.1ZM8.667,6.243a.667.667,0,1,1,1.333,0v2a.667.667,0,1,1-1.333,0Zm1.347,4.68a.671.671,0,0,1-.053.26.659.659,0,0,1-.14.213.67.67,0,0,1-.22.147.662.662,0,0,1-.867-.36.569.569,0,0,1-.053-.26V10.8a.722.722,0,0,1,.1-.24.526.526,0,0,1,.08-.1h.007a.664.664,0,0,1,.94,0l.08.1a.467.467,0,0,1,.06.113.58.58,0,0,1,.067.127v.127Z" transform="translate(-4 -2.008)" fill="#ff6d00"/>
  </g>
</svg>
