<svg id="apps_alt" xmlns="http://www.w3.org/2000/svg" width="16" height="16" viewBox="0 0 16 16">
  <rect id="Rectangle_146288" data-name="Rectangle 146288" width="16" height="16" opacity="0"/>
  <g id="Group_75666" data-name="Group 75666" transform="translate(2 2)">
    <path id="Path_19657" data-name="Path 19657" d="M4.7,7.4A2.7,2.7,0,1,1,7.4,4.7,2.7,2.7,0,0,1,4.7,7.4Zm0-4.2A1.5,1.5,0,1,0,6.2,4.7,1.5,1.5,0,0,0,4.7,3.2Zm6.6,4.2A2.7,2.7,0,1,1,14,4.7,2.7,2.7,0,0,1,11.3,7.4Zm0-4.2a1.5,1.5,0,1,0,1.5,1.5A1.5,1.5,0,0,0,11.3,3.2ZM4.7,14a2.7,2.7,0,1,1,2.7-2.7A2.7,2.7,0,0,1,4.7,14Zm0-4.2a1.5,1.5,0,1,0,1.5,1.5A1.5,1.5,0,0,0,4.7,9.8ZM11.3,14A2.7,2.7,0,1,1,14,11.3,2.7,2.7,0,0,1,11.3,14Zm0-4.2a1.5,1.5,0,1,0,1.5,1.5A1.5,1.5,0,0,0,11.3,9.8Z" transform="translate(-2 -2)"/>
  </g>
</svg>
