<svg xmlns="http://www.w3.org/2000/svg" width="28" height="28.02" viewBox="0 0 28 28.02">
  <g id="Group_90769" data-name="Group 90769" transform="translate(-265 -1943.999)">
    <rect id="Rectangle_146298" data-name="Rectangle 146298" width="28" height="28.02" rx="14" transform="translate(265 1943.999)" fill="#fff" opacity="0"/>
    <g id="task_add" transform="translate(267 1945.999)">
      <rect id="Rectangle_157071" data-name="Rectangle 157071" width="24" height="23.98" opacity="0"/>
      <g id="Group_90770" data-name="Group 90770" transform="translate(0 0.004)">
        <g id="Group_90769-2" data-name="Group 90769">
          <path id="Path_25123" data-name="Path 25123" d="M15.43,6H8.57A2.567,2.567,0,0,0,6,8.566v6.849A2.567,2.567,0,0,0,8.57,17.98h6.86A2.567,2.567,0,0,0,18,15.414V8.566A2.567,2.567,0,0,0,15.43,6ZM11.14,7.707h1.71V9.923l-.25-.25a.864.864,0,0,0-1.21,0l-.25.25Zm5.14,7.7a.859.859,0,0,1-.86.859H8.56A.859.859,0,0,1,7.7,15.4V8.556A.859.859,0,0,1,8.56,7.7h.86V11.98a.853.853,0,0,0,1.46.6l1.11-1.108,1.11,1.108a.863.863,0,0,0,.61.25.785.785,0,0,0,.33-.07.859.859,0,0,0,.53-.789V7.707h.86a.859.859,0,0,1,.86.859v6.849Z" transform="translate(0 -0.004)" fill="#2b2e33"/>
          <path id="Path_25124" data-name="Path 25124" d="M12,23.98a1.031,1.031,0,0,1-.35-.06,1.02,1.02,0,0,1-.35.04,12.136,12.136,0,0,1-2.68-.46,1,1,0,1,1,.56-1.918,10.424,10.424,0,0,0,2.23.39.937.937,0,0,1,.29.06.925.925,0,0,1,.29-.04,10.562,10.562,0,0,0,2.25-.25,1,1,0,1,1,.45,1.948,12.229,12.229,0,0,1-2.7.31Zm5.27-1.339a1.009,1.009,0,0,1-.88-.52,1,1,0,0,1,.4-1.359,9.539,9.539,0,0,0,1.85-1.309,1,1,0,1,1,1.33,1.489,12.73,12.73,0,0,1-2.22,1.569,1.035,1.035,0,0,1-.48.12Zm-11.1-.33a1.041,1.041,0,0,1-.53-.15,11.992,11.992,0,0,1-2.13-1.689,1,1,0,0,1,1.41-1.409,9.966,9.966,0,0,0,1.77,1.409,1,1,0,0,1,.32,1.379,1.014,1.014,0,0,1-.85.47Zm15.08-3.377a.972.972,0,0,1-.54-.16,1,1,0,0,1-.3-1.379,9.805,9.805,0,0,0,1-2.028,1,1,0,0,1,1.88.679,12.27,12.27,0,0,1-1.2,2.438.987.987,0,0,1-.84.46Zm-18.84-.55a.984.984,0,0,1-.87-.51A12.027,12.027,0,0,1,.48,15.367a1,1,0,0,1,1.92-.56A9.836,9.836,0,0,0,3.28,16.9a1,1,0,0,1-.38,1.359.974.974,0,0,1-.49.13Zm20.56-4.606H22.9a1,1,0,0,1-.93-1.069A5.551,5.551,0,0,0,21.99,12a10.035,10.035,0,0,0-.12-1.559,1,1,0,0,1,1.97-.31,12.811,12.811,0,0,1,.14,1.858,8.225,8.225,0,0,1-.03.859,1,1,0,0,1-1,.929ZM1,13.129a1,1,0,0,1-1-.979v-.16A12.047,12.047,0,0,1,.27,9.442a1.01,1.01,0,0,1,1.19-.769,1.01,1.01,0,0,1,.77,1.189A10.054,10.054,0,0,0,2,11.99v.12a1,1,0,0,1-.98,1.019H1ZM22.01,8.423a1.01,1.01,0,0,1-.91-.58,9.8,9.8,0,0,0-1.17-1.938,1,1,0,0,1,1.58-1.219,11.748,11.748,0,0,1,1.41,2.328,1.014,1.014,0,0,1-.49,1.329,1.024,1.024,0,0,1-.42.09ZM2.27,7.843a1,1,0,0,1-.88-1.469A12.353,12.353,0,0,1,2.93,4.137,1,1,0,0,1,4.44,5.445,9.521,9.521,0,0,0,3.16,7.314a1,1,0,0,1-.88.53ZM18.59,4.187a1.029,1.029,0,0,1-.6-.2,9.832,9.832,0,0,0-1.96-1.139,1,1,0,1,1,.81-1.828A12.067,12.067,0,0,1,19.19,2.4a1,1,0,0,1,.2,1.4,1.014,1.014,0,0,1-.8.4ZM5.93,3.817a1,1,0,0,1-.83-.45,1.009,1.009,0,0,1,.28-1.389A12.572,12.572,0,0,1,7.8.739a1,1,0,1,1,.7,1.878A9.617,9.617,0,0,0,6.48,3.647a1.016,1.016,0,0,1-.55.17Zm7.63-1.709h-.14a11.44,11.44,0,0,0-1.42-.1c-.29,0-.57.01-.85.03a.985.985,0,0,1-1.08-.909A1,1,0,0,1,10.98.05,7.049,7.049,0,0,1,12.01.01,12.015,12.015,0,0,1,13.7.13a1,1,0,0,1-.14,1.988Z" transform="translate(0 -0.004)" fill="#2b2e33"/>
          <circle id="Ellipse_4373" data-name="Ellipse 4373" cx="4.53" cy="4.53" r="4.53" transform="translate(14.94 14.916)" fill="#555d66"/>
          <path id="Path_25125" data-name="Path 25125" d="M17.47,18.47h1v-1a1,1,0,0,1,2,0v1h1a1,1,0,0,1,0,2h-1v1a1,1,0,0,1-2,0v-1h-1a1,1,0,0,1,0-2Z" transform="translate(0 -0.024)" fill="#fff"/>
        </g>
      </g>
    </g>
  </g>
</svg>
