<svg id="bike" xmlns="http://www.w3.org/2000/svg" xmlns:xlink="http://www.w3.org/1999/xlink" width="20" height="20" viewBox="0 0 20 20">
  <defs>
    <clipPath id="clip-path">
      <rect id="Rectangle_146105" data-name="Rectangle 146105" width="20" height="20" fill="#6b7480" opacity="0"/>
    </clipPath>
  </defs>
  <rect id="Rectangle_146104" data-name="Rectangle 146104" width="20" height="20" fill="#6b7480" opacity="0"/>
  <g id="Group_74991" data-name="Group 74991" clip-path="url(#clip-path)">
    <path id="Path_19604" data-name="Path 19604" d="M17.892,13.192,16.633,8.6a1.667,1.667,0,0,0,1.2-1.6V5.333a1.667,1.667,0,0,0-1.667-1.667h-2.5A1.667,1.667,0,0,0,12,2H10.333a.833.833,0,1,0,0,1.667H12v6.667a.833.833,0,0,1-.833.833h-.833a.833.833,0,0,1-.833-.833v-2.5A1.667,1.667,0,0,0,7.833,6.167H3.667A1.667,1.667,0,0,0,2,7.833v7.5a1.667,1.667,0,0,0,1.25,1.608A3.333,3.333,0,0,0,9.083,17h3.4a3.333,3.333,0,1,0,5.442-3.808ZM13.667,5.333h2.5V7h-2.5Zm-10,2.5H7.833V9.5H3.667ZM6.167,17a1.667,1.667,0,1,1,1.667-1.667A1.667,1.667,0,0,1,6.167,17ZM12,15.333H9.5a3.333,3.333,0,0,0-5.533-2.5,2.55,2.55,0,0,0-.3.3V11.167H7.983a2.5,2.5,0,0,0,2.35,1.667h.833a2.5,2.5,0,0,0,2.5-2.5V8.667h1.258l.925,3.375A3.509,3.509,0,0,0,15.333,12,3.333,3.333,0,0,0,12,15.333ZM15.333,17A1.667,1.667,0,1,1,17,15.333,1.667,1.667,0,0,1,15.333,17Z" transform="translate(-0.333 -0.333)" fill="#6b7480"/>
  </g>
</svg>
