<svg id="bolt_solid" xmlns="http://www.w3.org/2000/svg" width="20" height="20" viewBox="0 0 20 20">
  <rect id="Rectangle_146586" data-name="Rectangle 146586" width="20" height="20" fill="#e50047" opacity="0"/>
  <g id="Group_78117" data-name="Group 78117" transform="translate(3.355 1.666)">
    <path id="Path_19674" data-name="Path 19674" d="M17.088,8.392,8,18.392a.819.819,0,0,1-.842.25.835.835,0,0,1-.583-1.025L8.088,12H4.863a.813.813,0,0,1-.667-.325.833.833,0,0,1-.142-.725L6.288,2.617A.841.841,0,0,1,7.121,2h5.833a.845.845,0,0,1,.658.325.812.812,0,0,1,.142.725L12.7,7h3.817a.834.834,0,0,1,.725.5.816.816,0,0,1-.15.892Z" transform="translate(-4.025 -2)" fill="#e50047"/>
  </g>
</svg>
