<svg id="Layer_1" data-name="Layer 1" xmlns="http://www.w3.org/2000/svg" xmlns:xlink="http://www.w3.org/1999/xlink" viewBox="0 0 24 24"><defs><clipPath id="clip-path"><rect width="24" height="24" fill="#0083e6" opacity="0"/></clipPath></defs><rect width="24" height="24" fill="#0083e6" opacity="0"/><g clip-path="url(#clip-path)"><path d="M22,6V20a3,3,0,0,1-3,3H5a3,3,0,0,1-3-3V6A3,3,0,0,1,5,3H19A3,3,0,0,1,22,6Z" fill="#2a00e5" opacity="0.3"/><path d="M22,6V9H2V6A3,3,0,0,1,5,3H19A3,3,0,0,1,22,6Z" fill="#2a00e5" opacity="0.4"/><circle cx="7" cy="14" r="1" fill="#2a00e5"/><circle cx="12" cy="14" r="1" fill="#2a00e5"/><circle cx="17" cy="14" r="1" fill="#2a00e5"/><circle cx="7" cy="18" r="1" fill="#2a00e5"/><circle cx="12" cy="18" r="1" fill="#2a00e5"/><circle cx="17" cy="18" r="1" fill="#2a00e5"/><path d="M17,7a1,1,0,0,1-1-1V2a1,1,0,0,1,2,0V6A1,1,0,0,1,17,7Z" fill="#2a00e5"/><path d="M7,7A1,1,0,0,1,6,6V2A1,1,0,0,1,8,2V6A1,1,0,0,1,7,7Z" fill="#2a00e5"/></g></svg>