<?xml version="1.0" encoding="UTF-8"?><svg id="Layer_1" xmlns="http://www.w3.org/2000/svg" xmlns:xlink="http://www.w3.org/1999/xlink" viewBox="0 0 24 24"><defs><clipPath id="clippath-1"><rect width="24" height="24" fill="#d50000" opacity="0"/></clipPath></defs><rect width="24" height="24" fill="#d50000" opacity="0"/><g clip-path="url(#clippath-1)"><g><path d="M19.32,5.18c-.08-.09-.17-.17-.25-.25C15.23,.96,8.9,.85,4.93,4.68c-3.97,3.84-4.08,10.17-.25,14.14,.08,.09,.17,.17,.25,.25,3.84,3.97,10.17,4.08,14.14,.25,3.97-3.84,4.08-10.17,.25-14.14Zm-3.61,9.11h0c.38,.4,.38,1.03,0,1.42h-.01c-.39,.39-1.02,.39-1.41,0l-2.29-2.3-2.29,2.3h-.01c-.39,.39-1.02,.39-1.41,0h0c-.38-.4-.38-1.03,0-1.42l2.3-2.29-2.3-2.29c-.39-.39-.39-1.03,0-1.42,.39-.39,1.03-.39,1.42,0l2.29,2.3,2.29-2.3h.01c.39-.39,1.02-.39,1.41,0h0c.38,.4,.38,1.03,0,1.42l-2.3,2.29,2.3,2.29Z" fill="#d50000" opacity=".4"/><path d="M15.72,14.3c.38,.39,.38,1.02,0,1.41h-.01c-.39,.39-1.02,.39-1.41,0l-2.29-2.3-2.29,2.3h-.01c-.39,.39-1.02,.39-1.41,0h0c-.38-.4-.38-1.03,0-1.42l2.3-2.29-2.3-2.29c-.39-.39-.39-1.03,0-1.42,.39-.39,1.03-.39,1.42,0l2.29,2.3,2.29-2.3h.01c.39-.39,1.02-.39,1.41,0h0c.38,.4,.38,1.03,0,1.42l-2.3,2.29,2.3,2.29h0Z" fill="#d50000"/></g></g></svg>