<?xml version="1.0" encoding="UTF-8"?><svg id="Layer_1" xmlns="http://www.w3.org/2000/svg" xmlns:xlink="http://www.w3.org/1999/xlink" viewBox="0 0 24 24"><defs><clipPath id="clippath-1"><rect width="24" height="24" fill="#6200ff" opacity="0"/></clipPath></defs><rect width="24" height="24" fill="#6200ff" opacity="0"/><g clip-path="url(#clippath-1)"><g><rect x="2" y="2" width="12" height="20" rx="2" ry="2" fill="#6200ff" opacity=".4"/><path d="M21.92,12.38c.1-.24,.1-.52,0-.76-.05-.12-.12-.23-.22-.33l-4-4c-.39-.39-1.02-.39-1.41,0s-.39,1.02,0,1.41l2.29,2.29H9c-.55,0-1,.45-1,1s.45,1,1,1h9.59l-2.29,2.29c-.39,.39-.39,1.02,0,1.41,.2,.2,.45,.29,.71,.29s.51-.1,.71-.29l4-4c.09-.09,.17-.2,.22-.33Z" fill="#6200ff"/></g></g></svg>