<svg id="check_circle_monochrome" xmlns="http://www.w3.org/2000/svg" xmlns:xlink="http://www.w3.org/1999/xlink" width="40" height="40" viewBox="0 0 40 40">
  <defs>
    <clipPath id="clip-path">
      <rect id="Rectangle_146316" data-name="Rectangle 146316" width="40" height="40" fill="#1a9cff" opacity="0"/>
    </clipPath>
  </defs>
  <rect id="Rectangle_146315" data-name="Rectangle 146315" width="40" height="40" fill="#1a9cff" opacity="0"/>
  <g id="Group_75619" data-name="Group 75619" clip-path="url(#clip-path)">
    <path id="Path_19664" data-name="Path 19664" d="M18.667,2A16.667,16.667,0,1,0,35.333,18.667,16.667,16.667,0,0,0,18.667,2ZM25.55,15.683l-8.333,8.333a1.67,1.67,0,0,1-2.35,0L10.95,20.083l-.183-.167A1.672,1.672,0,1,1,13.3,17.733l2.75,2.75,7.15-7.167a1.667,1.667,0,0,1,2.35,0h0a1.667,1.667,0,0,1,0,2.367Z" transform="translate(1.333 1.333)" fill="#1a9cff" opacity="0.3"/>
    <path id="Path_19665" data-name="Path 19665" d="M22.206,11.351l-8.333,8.333a1.67,1.67,0,0,1-2.35,0L7.606,15.751l-.183-.167A1.672,1.672,0,1,1,9.956,13.4l2.75,2.75,7.15-7.167a1.667,1.667,0,0,1,2.35,0h0a1.667,1.667,0,0,1,0,2.367Z" transform="translate(4.678 5.666)" fill="#1a9cff"/>
  </g>
</svg>
