<svg id="clipboard_notes_solid" xmlns="http://www.w3.org/2000/svg" width="20" height="20" viewBox="0 0 20 20">
  <rect id="Rectangle_146585" data-name="Rectangle 146585" width="20" height="20" fill="#009dff" opacity="0"/>
  <g id="Group_78116" data-name="Group 78116" transform="translate(3.333 1.667)">
    <path id="Path_19673" data-name="Path 19673" d="M14.833,3.667H13.85A2.488,2.488,0,0,0,11.5,2H9.833a2.488,2.488,0,0,0-2.35,1.667H6.5A2.5,2.5,0,0,0,4,6.167v10a2.5,2.5,0,0,0,2.5,2.5h8.333a2.5,2.5,0,0,0,2.5-2.5v-10A2.5,2.5,0,0,0,14.833,3.667ZM9,4.5a.836.836,0,0,1,.833-.833H11.5a.836.836,0,0,1,.833.833v.833H9Zm2.5,9.167H8.167a.833.833,0,1,1,0-1.667H11.5a.833.833,0,0,1,0,1.667Zm1.667-3.333h-5a.833.833,0,1,1,0-1.667h5a.833.833,0,0,1,0,1.667Z" transform="translate(-4 -2)" fill="#009dff"/>
  </g>
</svg>
