<?xml version="1.0" encoding="UTF-8"?><svg id="Layer_1" xmlns="http://www.w3.org/2000/svg" xmlns:xlink="http://www.w3.org/1999/xlink" viewBox="0 0 24 24"><defs><clipPath id="clippath-1"><rect width="24" height="24" fill="#00c853" opacity="0"/></clipPath></defs><rect width="24" height="24" fill="#00c853" opacity="0"/><g clip-path="url(#clippath-1)"><g><path d="M12,2C6.48,2,2,6.48,2,12s4.48,10,10,10,10-4.48,10-10S17.52,2,12,2Zm4.13,8.21l-5,5c-.19,.18-.44,.29-.7,.29s-.52-.1-.71-.29l-2.35-2.36s-.08-.07-.11-.11c-.36-.42-.31-1.05,.11-1.41,.42-.36,1.05-.31,1.41,.11l1.65,1.65,4.29-4.3c.39-.39,1.02-.39,1.41,0h.01c.38,.4,.38,1.03-.01,1.42Z" fill="#00c853" opacity=".4"/><path d="M16.13,10.21l-5,5c-.19,.18-.44,.29-.7,.29s-.52-.1-.71-.29l-2.35-2.36s-.08-.07-.11-.11c-.36-.42-.31-1.05,.11-1.41,.42-.36,1.05-.31,1.41,.11l1.65,1.65,4.29-4.3c.39-.39,1.02-.39,1.41,0h.01c.38,.4,.38,1.03-.01,1.42Z" fill="#00c853"/></g></g></svg>