<svg id="drag_move" xmlns="http://www.w3.org/2000/svg" width="16" height="16" viewBox="0 0 16 16">
  <rect id="Rectangle_146317" data-name="Rectangle 146317" width="16" height="16" fill="#6b7480" opacity="0"/>
  <g id="Group_76044" data-name="Group 76044" transform="translate(1.995 1.995)">
    <path id="Path_19659" data-name="Path 19659" d="M13.95,8.233a.6.6,0,0,0-.132-.655l-1.8-1.8a.6.6,0,1,0-.846.847l.774.775H8.592V4.046l.774.775A.589.589,0,0,0,9.792,5a.614.614,0,0,0,.426-.174.6.6,0,0,0,0-.847l-1.8-1.8a.573.573,0,0,0-.2-.132.6.6,0,0,0-.654.132l-1.8,1.8a.6.6,0,0,0,0,.847A.589.589,0,0,0,6.192,5a.614.614,0,0,0,.426-.174l.774-.775V7.4H4.044l.774-.775a.6.6,0,1,0-.846-.847l-1.8,1.8a.574.574,0,0,0-.132.2.6.6,0,0,0,.132.655l1.8,1.8a.589.589,0,0,0,.426.174.614.614,0,0,0,.426-.174.6.6,0,0,0,0-.847L4.05,8.618H7.4v3.358L6.63,11.2a.6.6,0,1,0-.846.847l1.8,1.8a.573.573,0,0,0,.2.132.6.6,0,0,0,.654-.132l1.8-1.8A.6.6,0,0,0,9.39,11.2l-.774.775V8.618H11.97l-.774.775a.6.6,0,0,0,0,.847.589.589,0,0,0,.426.174.614.614,0,0,0,.426-.174l1.8-1.8a.574.574,0,0,0,.132-.2Z" transform="translate(-1.995 -1.995)" fill="#6b7480"/>
  </g>
</svg>
