<?xml version="1.0" encoding="UTF-8"?><svg id="Layer_1" xmlns="http://www.w3.org/2000/svg" xmlns:xlink="http://www.w3.org/1999/xlink" viewBox="0 0 24 24"><defs><clipPath id="clippath"><rect width="24" height="24" opacity="0"/></clipPath></defs><rect width="24" height="24" /><g clip-path="url(#clippath)"><g><path d="M17.05,2.86c-1.11-.93-2.39-1.52-3.81-1.75-.42-.07-.84-.1-1.26-.1-1.08,0-2.12,.23-3.14,.68-1.37,.61-2.49,1.55-3.35,2.8-.92,1.34-1.4,2.83-1.48,4.46-.05,1.11,.17,2.18,.52,3.22,.6,1.82,1.53,3.47,2.57,5.06,1.18,1.8,2.52,3.47,3.96,5.06,.24,.26,.45,.56,.79,.72h.33c.13-.08,.27-.16,.38-.28,.2-.23,.42-.46,.63-.69,1.47-1.63,2.82-3.36,4-5.22,1.03-1.63,1.94-3.32,2.47-5.2,.49-1.71,.47-3.41-.11-5.1-.5-1.46-1.33-2.68-2.5-3.66Z" fill="#ffe000"/><path d="M20.49,6.19c-.56-1.63-1.5-3.01-2.8-4.1-1.25-1.04-2.69-1.71-4.29-1.97-.47-.08-.95-.12-1.42-.12-1.2,0-2.39,.26-3.54,.77-1.53,.68-2.8,1.74-3.77,3.15-1.01,1.47-1.57,3.15-1.65,4.98-.05,1.11,.14,2.28,.57,3.58,.56,1.68,1.38,3.31,2.68,5.29,1.14,1.73,2.46,3.43,4.05,5.18l.11,.13c.23,.27,.52,.6,.98,.82l.21,.1h.85l.24-.15,.05-.03c.15-.09,.36-.22,.56-.44,.11-.13,.23-.25,.35-.38,.09-.1,.18-.2,.27-.3,1.61-1.79,2.95-3.54,4.1-5.35,1.3-2.04,2.1-3.73,2.59-5.46,.55-1.93,.51-3.85-.12-5.7ZM11.84,23c-.33-.16-.55-.45-.79-.72-1.44-1.59-2.78-3.26-3.96-5.06-1.04-1.59-1.97-3.24-2.57-5.06-.35-1.04-.57-2.11-.52-3.22,.07-1.63,.56-3.13,1.48-4.46,.87-1.26,1.98-2.2,3.35-2.8,1.02-.45,2.06-.68,3.14-.68,.42,0,.84,.03,1.26,.1,1.42,.23,2.7,.82,3.81,1.75,1.16,.97,2,2.2,2.5,3.66,.58,1.69,.6,3.39,.11,5.1-.54,1.88-1.44,3.57-2.47,5.2-1.18,1.86-2.53,3.59-4,5.22-.21,.23-.42,.46-.63,.69-.11,.12-.25,.2-.38,.28h-.33Z" fill="#fff"/></g><path d="M8.99,4.77h2.98c.84,0,1.56,.17,2.15,.5s1.05,.81,1.37,1.43c.32,.62,.48,1.38,.48,2.27h0c0,.9-.16,1.67-.47,2.3s-.77,1.12-1.37,1.45-1.32,.5-2.16,.5h-2.98V4.77Zm2.86,7.32c.6,0,1.1-.12,1.52-.36s.73-.59,.94-1.05,.32-1.02,.32-1.69h0c0-.67-.11-1.23-.33-1.69s-.53-.81-.94-1.04-.92-.35-1.51-.35h-1.55v6.18h1.55Z" fill="#15171a"/></g></svg>