<?xml version="1.0" encoding="UTF-8"?><svg id="Layer_1" xmlns="http://www.w3.org/2000/svg" xmlns:xlink="http://www.w3.org/1999/xlink" viewBox="0 0 24 24"><defs><clipPath id="clippath"><rect width="24" height="24" fill="#40464d" opacity="0"/></clipPath></defs><rect width="24" height="24" fill="#40464d" opacity="0"/><g clip-path="url(#clippath)"><g><path d="M19.71,8l-2.84,2.78-.7,.7-5.65-5.65,.71-.71,2.82-2.83h.01c.39-.39,1.02-.39,1.41,0l4.24,4.29h0c.38,.4,.38,1.03,0,1.42Z" fill="#40464d"/><path d="M16.17,11.48l-2.87,2.88-3.35,3.35c-.19,.19-.44,.29-.71,.29H5c-.55,0-1-.45-1-1v-4.24c0-.27,.1-.52,.29-.71l4.25-4.24,1.98-1.98,5.65,5.65Z" fill="#40464d" opacity=".4"/><path d="M22,21c0,.55-.45,1-1,1H3c-.55,0-1-.45-1-1s.45-1,1-1H21c.55,0,1,.45,1,1Z" fill="#40464d"/></g></g></svg>