<svg xmlns="http://www.w3.org/2000/svg" xmlns:xlink="http://www.w3.org/1999/xlink" width="16" height="16" viewBox="0 0 16 16">
  <defs>
    <clipPath id="clip-path">
      <rect id="Rectangle_145941" data-name="Rectangle 145941" width="16" height="16" fill="#d50000" opacity="0"/>
    </clipPath>
  </defs>
  <g id="exclamation_circle_solid" transform="translate(16 16) rotate(180)">
    <rect id="Rectangle_145940" data-name="Rectangle 145940" width="16" height="16" fill="#d50000" opacity="0"/>
    <g id="Group_73381" data-name="Group 73381" clip-path="url(#clip-path)">
      <circle id="Ellipse_2922" data-name="Ellipse 2922" cx="4.571" cy="4.571" r="4.571" transform="translate(3.429 3.429)" fill="#6b7480"/>
      <path id="Path_19561" data-name="Path 19561" d="M8.667,2a6.667,6.667,0,1,0,6.667,6.667A6.667,6.667,0,0,0,8.667,2ZM8,6.333a.72.72,0,0,1,.667-.667.72.72,0,0,1,.667.667v2A.72.72,0,0,1,8.667,9,.72.72,0,0,1,8,8.333Zm.667,5.333a.813.813,0,0,1-.8-.8.867.867,0,0,1,.8-.867.813.813,0,0,1,.8.8.867.867,0,0,1-.8.867Z" transform="translate(-0.667 -0.667)" fill="#cdd1d5"/>
    </g>
  </g>
</svg>
