<svg id="fire" xmlns="http://www.w3.org/2000/svg" xmlns:xlink="http://www.w3.org/1999/xlink" width="16" height="16" viewBox="0 0 16 16">
  <defs>
    <clipPath id="clip-path">
      <rect id="Rectangle_155127" data-name="Rectangle 155127" width="16" height="16" fill="#d50000" opacity="0"/>
    </clipPath>
  </defs>
  <rect id="Rectangle_155126" data-name="Rectangle 155126" width="16" height="16" fill="#d50000" opacity="0"/>
  <g id="Group_86672" data-name="Group 86672" clip-path="url(#clip-path)">
    <path id="Path_23881" data-name="Path 23881" d="M6.66,5.876Zm6.667-.12a.867.867,0,0,0-.187-.1.667.667,0,0,0-.913.24v.033a3.76,3.76,0,0,1-.933,1.187,5.653,5.653,0,0,0,.093-1.007A5.82,5.82,0,0,0,8.454,1.056a.667.667,0,0,0-.914.253.593.593,0,0,0-.08.287A4.667,4.667,0,0,1,5.787,4.869l-.153.12A5.553,5.553,0,0,0,4.347,6.236a6,6,0,0,0,.933,8.413,6.227,6.227,0,0,0,1.467.86.667.667,0,0,0,.933-.62.707.707,0,0,0-.033-.207,4.667,4.667,0,0,1-.14-1.693,6,6,0,0,0,2.873,2.667.667.667,0,0,0,.48,0,6,6,0,0,0,2.433-9.9Zm-2.633,8.567a4.613,4.613,0,0,1-2.387-2.933,5.26,5.26,0,0,1-.12-.667.667.667,0,0,0-.533-.56H7.527a.667.667,0,0,0-.58.333,6,6,0,0,0-.8,3.16,4.667,4.667,0,0,1-.82-6.533V7.076A4.507,4.507,0,0,1,6.4,6.083l.053-.033.2-.167A6,6,0,0,0,8.587,2.789a4.493,4.493,0,0,1,.927,5.393.666.666,0,0,0,.787.947,5.28,5.28,0,0,0,2.58-1.793,4.667,4.667,0,0,1-2.187,6.987Z" transform="translate(-1.013 -0.323)" fill="#d50000"/>
  </g>
</svg>
