<svg id="globe" xmlns="http://www.w3.org/2000/svg" xmlns:xlink="http://www.w3.org/1999/xlink" width="16" height="16" viewBox="0 0 16 16">
  <defs>
    <clipPath id="clip-path">
      <rect id="Rectangle_146173" data-name="Rectangle 146173" width="16" height="16" fill="#15171a" opacity="0"/>
    </clipPath>
  </defs>
  <rect id="Rectangle_146172" data-name="Rectangle 146172" width="16" height="16" fill="#15171a" opacity="0"/>
  <g id="Group_75210" data-name="Group 75210" clip-path="url(#clip-path)">
    <path id="Path_19620" data-name="Path 19620" d="M14.932,6.436V6.4a6.667,6.667,0,0,0-12.52,0v.033a6.547,6.547,0,0,0,0,4.48v.033a6.667,6.667,0,0,0,12.52,0v-.033A6.547,6.547,0,0,0,14.932,6.436ZM3.5,10.01a5.167,5.167,0,0,1,0-2.667h1.24a11.153,11.153,0,0,0,0,2.667Zm.547,1.333h.933a8,8,0,0,0,.667,1.713,5.387,5.387,0,0,1-1.6-1.713ZM4.979,6.01H4.046A5.333,5.333,0,0,1,5.626,4.3,8.307,8.307,0,0,0,4.979,6.01Zm3.027,7.8a4.213,4.213,0,0,1-1.633-2.467H8.006Zm0-3.8H6.086a9.407,9.407,0,0,1,0-2.667h1.92Zm0-4H6.372A4.213,4.213,0,0,1,8.006,3.543Zm5.267,0h-.933A8,8,0,0,0,11.672,4.3a5.387,5.387,0,0,1,1.6,1.713ZM9.339,3.543A4.213,4.213,0,0,1,10.946,6.01H9.339Zm0,10.267V11.343h1.62a4.213,4.213,0,0,1-1.62,2.467Zm1.893-3.8H9.339V7.343h1.907a9.407,9.407,0,0,1-.013,2.667Zm.46,3.047a8,8,0,0,0,.667-1.713h.933a5.387,5.387,0,0,1-1.6,1.713Zm2.127-3.047h-1.24a11.153,11.153,0,0,0,0-2.667h1.24a5.167,5.167,0,0,1,0,2.667Z" transform="translate(-0.672 -0.676)" fill="#15171a"/>
  </g>
</svg>
