<svg id="hand_order" xmlns="http://www.w3.org/2000/svg" width="20" height="20" viewBox="0 0 20 20">
  <rect id="Rectangle_154522" data-name="Rectangle 154522" width="20" height="20" fill="#0005f1" opacity="0"/>
  <g id="Group_85444" data-name="Group 85444" transform="translate(2.375 1.667)">
    <g id="Group_85443" data-name="Group 85443">
      <path id="Path_23456" data-name="Path 23456" d="M17.508,14.975a2.033,2.033,0,0,0-2.592-.225l-1.325.742A2.08,2.08,0,0,0,11.6,14H7.817a2.468,2.468,0,0,0-1.95.942L4.95,16.083H3.683a.833.833,0,0,0,0,1.667H5.35A.833.833,0,0,0,6,17.433l1.167-1.458a.833.833,0,0,1,.65-.317H11.6a.417.417,0,1,1,0,.833H10.35a.833.833,0,0,0,0,1.667h1.667a.789.789,0,0,0,.408-.108l3.342-1.883s.058-.033.092-.058a.356.356,0,0,1,.467.033.316.316,0,0,1,.1.267.338.338,0,0,1-.133.258l-2.675,2.142a.85.85,0,0,1-.517.183H3.683a.833.833,0,0,0,0,1.667H13.1a2.453,2.453,0,0,0,1.558-.55l2.675-2.142a2.017,2.017,0,0,0,.167-3.008Z" transform="translate(-2.85 -4)" fill="#0005f1"/>
      <path id="Path_23457" data-name="Path 23457" d="M7.35,10.333h6.667a2.507,2.507,0,0,0,2.5-2.5V4.5a2.507,2.507,0,0,0-2.5-2.5H7.35a2.507,2.507,0,0,0-2.5,2.5V7.833A2.507,2.507,0,0,0,7.35,10.333ZM6.517,4.5a.836.836,0,0,1,.833-.833H9.017V5.675a.42.42,0,0,0,.208.358.414.414,0,0,0,.417,0l1.042-.583,1.05.583a.458.458,0,0,0,.2.058.413.413,0,0,0,.417-.417V3.667h1.667a.836.836,0,0,1,.833.833V7.833a.836.836,0,0,1-.833.833H7.35a.836.836,0,0,1-.833-.833Z" transform="translate(-3.183 -2)" fill="#0005f1"/>
    </g>
  </g>
</svg>
