<?xml version="1.0" encoding="UTF-8"?><svg id="Layer_1" xmlns="http://www.w3.org/2000/svg" xmlns:xlink="http://www.w3.org/1999/xlink" viewBox="0 0 24 24"><defs><clipPath id="clippath-1"><rect width="24" height="24" fill="#ff6d00" opacity="0"/></clipPath></defs><rect width="24" height="24" fill="#ff6d00" opacity="0"/><g clip-path="url(#clippath-1)"><g><path d="M19.91,15.51h-4.53c-.55,0-1,.45-1,1s.45,1,1,1h2.4c-3.05,3.19-8.12,3.3-11.31,.25-1.57-1.5-2.46-3.58-2.47-5.76,0-.55-.45-1-1-1s-1,.45-1,1c.01,5.52,4.5,9.99,10.03,9.97,2.55,0,5-.99,6.85-2.74v1.77c0,.55,.45,1,1,1s1-.45,1-1v-4.5c0-.54-.43-.97-.97-.99Z" fill="#ff6d00" opacity=".4"/><circle cx="12" cy="12" r="3" fill="#ff6d00"/><path d="M12,2c-2.56,0-5.03,1-6.88,2.77v-1.77c0-.55-.45-1-1-1s-1,.45-1,1V7.5c0,.55,.45,1,1,1h4.5c.55,0,1-.45,1-1s-.45-1-1-1h-2.4c3.05-3.19,8.12-3.3,11.31-.25,1.57,1.5,2.46,3.58,2.47,5.75,0,.55,.45,1,1,1s1-.45,1-1c0-5.52-4.48-10-10-10Z" fill="#ff6d00" opacity=".4"/></g></g></svg>