<svg id="map_marker_unassigned_sending" xmlns="http://www.w3.org/2000/svg" width="24" height="24" viewBox="0 0 24 24">
  <rect id="Rectangle_157068" data-name="Rectangle 157068" width="24" height="24" opacity="0"/>
  <g id="Group_90766" data-name="Group 90766">
    <path id="Path_25121" data-name="Path 25121" d="M11.84,23a2.71,2.71,0,0,1-.79-.72,41.244,41.244,0,0,1-3.96-5.06,21.719,21.719,0,0,1-2.57-5.06A8.81,8.81,0,0,1,4,8.94,8.336,8.336,0,0,1,5.48,4.48a7.838,7.838,0,0,1,3.35-2.8,7.641,7.641,0,0,1,4.4-.58,7.8,7.8,0,0,1,3.81,1.75,8.126,8.126,0,0,1,2.5,3.66,8.306,8.306,0,0,1,.11,5.1,20.193,20.193,0,0,1-2.47,5.2,39.023,39.023,0,0,1-4,5.22l-.63.69a1.693,1.693,0,0,1-.38.28h-.33Z" fill="#6b7480"/>
    <g id="Group_90765" data-name="Group 90765">
      <circle id="Ellipse_4369" data-name="Ellipse 4369" cx="1.5" cy="1.5" r="1.5" transform="translate(15 7.5)" fill="#fff"/>
      <circle id="Ellipse_4370" data-name="Ellipse 4370" cx="1.5" cy="1.5" r="1.5" transform="translate(6 7.5)" fill="#fff"/>
      <circle id="Ellipse_4371" data-name="Ellipse 4371" cx="1.5" cy="1.5" r="1.5" transform="translate(10.5 7.5)" fill="#fff"/>
    </g>
  </g>
</svg>
