<svg id="otp_code" xmlns="http://www.w3.org/2000/svg" xmlns:xlink="http://www.w3.org/1999/xlink" width="40" height="40" viewBox="0 0 40 40">
  <defs>
    <clipPath id="clip-path">
      <rect id="Rectangle_157244" data-name="Rectangle 157244" width="40" height="40" opacity="0"/>
    </clipPath>
  </defs>
  <rect id="Rectangle_157243" data-name="Rectangle 157243" width="40" height="40" opacity="0"/>
  <g id="Group_91347" data-name="Group 91347" clip-path="url(#clip-path)">
    <g id="Group_91346" data-name="Group 91346" transform="translate(3.324 8.333)">
      <path id="Path_25231" data-name="Path 25231" d="M11.8,16.783a1.662,1.662,0,0,1-1.467.867,1.724,1.724,0,0,1-.8-.2l-.867-.483v.85a1.667,1.667,0,0,1-3.333,0v-.85l-.867.483a1.724,1.724,0,0,1-.8.2A1.7,1.7,0,0,1,2.2,16.783a1.671,1.671,0,0,1,.65-2.267l.7-.383-.7-.383a1.667,1.667,0,1,1,1.617-2.917l.867.483v-.85a1.667,1.667,0,0,1,3.333,0v.85l.867-.483a1.667,1.667,0,0,1,1.617,2.917l-.7.383.7.383A1.671,1.671,0,0,1,11.8,16.783Z" transform="translate(-1.994 -2.467)" fill="#0005f1"/>
      <path id="Path_25232" data-name="Path 25232" d="M18.144,14.523l-.7-.383.7-.383a1.667,1.667,0,1,0-1.617-2.917l-.867.483v-.867a1.667,1.667,0,0,0-3.333,0v.85l-.867-.483A1.667,1.667,0,0,0,9.844,13.74l.7.383-.7.383a1.673,1.673,0,0,0,.817,3.133,1.724,1.724,0,0,0,.8-.2l.867-.483v.85a1.667,1.667,0,0,0,3.333,0v-.85l.867.483a1.724,1.724,0,0,0,.8.2,1.7,1.7,0,0,0,1.467-.867,1.671,1.671,0,0,0-.65-2.267Z" transform="translate(2.666 -2.473)" fill="#0005f1"/>
      <path id="Path_25233" data-name="Path 25233" d="M25.144,14.523l-.7-.383.7-.383a1.667,1.667,0,0,0-1.617-2.917l-.867.483v-.867a1.667,1.667,0,1,0-3.333,0v.867l-.867-.483a1.667,1.667,0,0,0-1.617,2.917l.7.383-.7.383a1.673,1.673,0,0,0,.817,3.133,1.724,1.724,0,0,0,.8-.2l.867-.483v.85a1.667,1.667,0,1,0,3.333,0v-.85l.867.483a1.724,1.724,0,0,0,.8.2,1.7,1.7,0,0,0,1.467-.867,1.671,1.671,0,0,0-.65-2.267Z" transform="translate(7.333 -2.473)" fill="#0005f1"/>
      <path id="Path_25234" data-name="Path 25234" d="M35.333,6.667A1.672,1.672,0,0,0,33.667,5h-30a1.667,1.667,0,1,0,0,3.333h30A1.672,1.672,0,0,0,35.333,6.667Z" transform="translate(-1.99 -5)" fill="#0005f1" opacity="0.4"/>
      <path id="Path_25235" data-name="Path 25235" d="M35.333,18.667A1.672,1.672,0,0,0,33.667,17h-30a1.667,1.667,0,1,0,0,3.333h30A1.672,1.672,0,0,0,35.333,18.667Z" transform="translate(-1.99 3)" fill="#0005f1" opacity="0.4"/>
    </g>
  </g>
</svg>
