<svg id="package_ready_solid" xmlns="http://www.w3.org/2000/svg" width="20" height="20" viewBox="0 0 20 20">
  <rect id="Rectangle_146583" data-name="Rectangle 146583" width="20" height="20" fill="#0005f1" opacity="0"/>
  <g id="Group_78115" data-name="Group 78115" transform="translate(1.683 2.5)">
    <path id="Path_19672" data-name="Path 19672" d="M18.5,4.65A2.51,2.51,0,0,0,16.17,3H4.5A2.5,2.5,0,0,0,3.67,7.85V15.5A2.5,2.5,0,0,0,6.17,18H14.5A2.5,2.5,0,0,0,17,15.5V7.85a2.5,2.5,0,0,0,1.5-3.2Zm-5.075,6.442-3.333,3.333h-.008a.83.83,0,0,1-1.175,0L7.245,12.758a.837.837,0,0,1,1.183-1.183L9.5,12.658l1.325-1.325,1.417-1.425h0a.426.426,0,0,1,.175-.125.821.821,0,0,1,1.008.125h0a.84.84,0,0,1,0,1.183ZM16.17,6.333H4.5a.833.833,0,1,1,0-1.667H16.17a.833.833,0,0,1,0,1.667Z" transform="translate(-2.02 -3)" fill="#0005f1"/>
  </g>
</svg>
