<svg id="parcel_monochrome" xmlns="http://www.w3.org/2000/svg" xmlns:xlink="http://www.w3.org/1999/xlink" width="40" height="40" viewBox="0 0 40 40">
  <defs>
    <clipPath id="clip-path">
      <rect id="Rectangle_146227" data-name="Rectangle 146227" width="40" height="40" fill="#009d4b" opacity="0"/>
    </clipPath>
  </defs>
  <rect id="Rectangle_146226" data-name="Rectangle 146226" width="40" height="40" fill="#009d4b" opacity="0"/>
  <g id="Group_75332" data-name="Group 75332" clip-path="url(#clip-path)">
    <path id="Path_19613" data-name="Path 19613" d="M35.333,7V30.333a5,5,0,0,1-5,5H7a5,5,0,0,1-5-5V7A5,5,0,0,1,7,2h5V13.383a1.667,1.667,0,0,0,2.5,1.433L18.667,12.5l4.183,2.333a1.75,1.75,0,0,0,.817.217,1.667,1.667,0,0,0,1.667-1.667V2h5A5,5,0,0,1,35.333,7Z" transform="translate(1.333 1.333)" fill="#009d4b" opacity="0.3"/>
    <path id="Path_19614" data-name="Path 19614" d="M19.333,17.667a1.667,1.667,0,0,1-1.667,1.667h-10a1.667,1.667,0,0,1,0-3.333h10A1.667,1.667,0,0,1,19.333,17.667Z" transform="translate(4 10.667)" fill="#009d4b"/>
    <path id="Path_19615" data-name="Path 19615" d="M12.667,13.667A1.667,1.667,0,0,1,11,15.333H7.667a1.667,1.667,0,1,1,0-3.333H11A1.667,1.667,0,0,1,12.667,13.667Z" transform="translate(4 8)" fill="#009d4b"/>
    <path id="Path_19616" data-name="Path 19616" d="M21.333,2V13.383a1.667,1.667,0,0,1-1.667,1.667,1.75,1.75,0,0,1-.817-.217L14.667,12.5,10.5,14.817A1.667,1.667,0,0,1,8,13.383V2Z" transform="translate(5.333 1.333)" fill="#009d4b"/>
  </g>
</svg>
