<svg id="Layer_1" data-name="Layer 1" xmlns="http://www.w3.org/2000/svg" xmlns:xlink="http://www.w3.org/1999/xlink" viewBox="0 0 24 24"><defs><clipPath id="clip-path"><rect width="24" height="24" fill="#0083e6" opacity="0"/></clipPath></defs><rect width="24" height="24" fill="#0083e6" opacity="0"/><g clip-path="url(#clip-path)"><path d="M12,2A10,10,0,1,0,22,12,10,10,0,0,0,12,2Zm4,11.72-5,2.9a2.09,2.09,0,0,1-2,0,2,2,0,0,1-1-1.73V9.11a1.92,1.92,0,0,1,.27-1A2,2,0,0,1,11,7.38l5,2.89a2,2,0,0,1,.73.72A2,2,0,0,1,16,13.72Z" fill="#0083e6" opacity="0.3"/><path d="M16,13.72l-5,2.9a2.09,2.09,0,0,1-2,0,2,2,0,0,1-1-1.73V9.11a1.92,1.92,0,0,1,.27-1A2,2,0,0,1,11,7.38l5,2.89a2,2,0,0,1,.73.72A2,2,0,0,1,16,13.72Z" fill="#0083e6"/></g></svg>