<svg id="Layer_1" data-name="Layer 1" xmlns="http://www.w3.org/2000/svg" xmlns:xlink="http://www.w3.org/1999/xlink" viewBox="0 0 24 24"><defs><clipPath id="clip-path"><rect width="24" height="24" fill="#0083e6" opacity="0"/></clipPath></defs><rect width="24" height="24" fill="#0083e6" opacity="0"/><g clip-path="url(#clip-path)"><path d="M8.5,6H6.72A8,8,0,0,1,12,4a8.65,8.65,0,0,1,.88,0,1,1,0,0,0,.24-2h0A8.42,8.42,0,0,0,12,2,10,10,0,0,0,5.5,4.42V3a1,1,0,0,0-2,0V7a1.06,1.06,0,0,0,0,.19h0a.85.85,0,0,0,.14.34v0a1,1,0,0,0,.25.24l0,0,0,0,.18.09a1.09,1.09,0,0,0,.26,0H8.5a1,1,0,0,0,0-2Zm12,10.8a.85.85,0,0,0-.14-.34v0a1,1,0,0,0-.25-.24l0,0,0,0a1.16,1.16,0,0,0-.41-.13l-.09,0h-4a1,1,0,0,0,0,2h1.78A8,8,0,0,1,12,20a8.65,8.65,0,0,1-.88-.05,1,1,0,1,0-.24,2A8.42,8.42,0,0,0,12,22a10,10,0,0,0,6.5-2.42V21a1,1,0,0,0,2,0V17a1.06,1.06,0,0,0,0-.19Z" fill="#009d4b" opacity="0.7"/><path d="M7,14.5a1,1,0,0,0-1,1H6v1.78A8,8,0,0,1,4,12a8.65,8.65,0,0,1,0-.88A1,1,0,0,0,3.18,10a1,1,0,0,0-1.11.87h0A8.42,8.42,0,0,0,2,12a10,10,0,0,0,2.42,6.5H3a1,1,0,0,0,0,2H7a1,1,0,0,0,.79-.42l0,0a.06.06,0,0,0,0,0A.8.8,0,0,0,8,19.75a.5.5,0,0,0,0-.16s0-.06,0-.09v-4a1,1,0,0,0-1-1Zm14-9a1,1,0,0,0,0-2H17l-.19,0h0a.85.85,0,0,0-.34.14h0a1,1,0,0,0-.24.25l0,0s0,0,0,0a1.23,1.23,0,0,0-.13.41s0,.06,0,.09v4a1,1,0,0,0,2,0V6.72A8,8,0,0,1,20,12a8.65,8.65,0,0,1-.05.88A1,1,0,0,0,20.82,14h.12a1,1,0,0,0,1-.88A8.42,8.42,0,0,0,22,12a10,10,0,0,0-2.42-6.5Z" fill="#009d4b"/></g></svg>