<?xml version="1.0" encoding="UTF-8"?><svg id="Layer_1" xmlns="http://www.w3.org/2000/svg" xmlns:xlink="http://www.w3.org/1999/xlink" viewBox="0 0 24 24"><defs><clipPath id="clippath"><rect width="24" height="24" fill="#009dff" opacity="0"/></clipPath></defs><rect width="24" height="24" fill="#009dff" opacity="0"/><g clip-path="url(#clippath)"><g><path d="M14,10c-1.1,0-2-.9-2-2V2H7c-1.65,0-3,1.35-3,3v14c0,1.65,1.35,3,3,3h10c1.65,0,3-1.35,3-3V10h-6Zm1.71,3.79l-4,4h-.01c-.09,.09-.2,.16-.31,.21-.25,.11-.54,.11-.79,0-.11-.05-.22-.12-.31-.21l-2-2c-.39-.4-.39-1.03,0-1.42,.39-.4,1.03-.4,1.42,0l1.29,1.3,1.66-1.67,1.63-1.63c.08-.08,.17-.15,.27-.2,.38-.18,.84-.12,1.15,.2,.39,.39,.39,1.02,0,1.42Z" fill="#009dff" opacity=".4"/><path d="M20,10h-6c-1.1,0-2-.9-2-2V2l8,8Z" fill="#009dff"/><path d="M15.71,13.79l-4,4h-.01c-.09,.09-.2,.16-.31,.21-.25,.11-.54,.11-.79,0-.11-.05-.22-.12-.31-.21l-2-2c-.39-.4-.39-1.03,0-1.42,.39-.4,1.03-.4,1.42,0l1.29,1.3,1.66-1.67,1.63-1.63c.08-.08,.17-.15,.27-.2,.38-.18,.84-.12,1.15,.2,.39,.39,.39,1.02,0,1.42Z" fill="#009dff"/></g></g></svg>