<?xml version="1.0" encoding="UTF-8"?><svg id="Layer_1" xmlns="http://www.w3.org/2000/svg" xmlns:xlink="http://www.w3.org/1999/xlink" viewBox="0 0 24 24"><defs><clipPath id="clippath-1"><rect width="24" height="24" fill="#6200ff" opacity="0"/></clipPath></defs><rect width="24" height="24" fill="#6200ff" opacity="0"/><g clip-path="url(#clippath-1)"><g><path d="M12,2C6.48,2,2,6.48,2,12s4.48,10,10,10,10-4.48,10-10S17.52,2,12,2Zm4,11H8c-.55,0-1-.45-1-1s.45-1,1-1h8c.55,0,1,.45,1,1s-.45,1-1,1Z" fill="#6200ff" opacity=".4"/><path d="M17,12c0,.55-.45,1-1,1H8c-.55,0-1-.45-1-1s.45-1,1-1h8c.55,0,1,.45,1,1Z" fill="#6200ff"/></g></g></svg>