<?xml version="1.0" encoding="UTF-8"?><svg id="Layer_1" xmlns="http://www.w3.org/2000/svg" xmlns:xlink="http://www.w3.org/1999/xlink" viewBox="0 0 24 24"><defs><clipPath id="clippath-1"><rect width="24" height="24" fill="#009dff" opacity="0"/></clipPath></defs><rect width="24" height="24" fill="#009dff" opacity="0"/><g clip-path="url(#clippath-1)"><g><path d="M12,2C6.48,2,2,6.48,2,12s4.48,10,10,10,10-4.48,10-10S17.52,2,12,2Zm4,11.73l-5,2.89c-.62,.36-1.38,.36-2,0s-1-1.02-1-1.73v-5.78c0-.35,.09-.69,.27-1,.55-.95,1.77-1.28,2.73-.73l5,2.89c.3,.17,.55,.43,.73,.73,.55,.95,.23,2.18-.73,2.73Z" fill="#009dff" opacity=".4"/><path d="M16,13.73l-5,2.89c-.62,.36-1.38,.36-2,0s-1-1.02-1-1.73v-5.78c0-.35,.09-.69,.27-1,.55-.95,1.77-1.28,2.73-.73l5,2.89c.3,.17,.55,.43,.73,.73,.55,.95,.23,2.18-.73,2.73Z" fill="#009dff"/></g></g></svg>