<svg id="robot_slash" xmlns="http://www.w3.org/2000/svg" xmlns:xlink="http://www.w3.org/1999/xlink" width="16" height="16" viewBox="0 0 16 16">
  <defs>
    <clipPath id="clip-path">
      <rect id="Rectangle_157852" data-name="Rectangle 157852" width="16" height="16" fill="#fff" opacity="0"/>
    </clipPath>
  </defs>
  <rect id="Rectangle_157851" data-name="Rectangle 157851" width="16" height="16" fill="#fff" opacity="0"/>
  <g id="Group_92820" data-name="Group 92820" clip-path="url(#clip-path)">
    <path id="Path_25599" data-name="Path 25599" d="M14.807,14.193l-12-12a.669.669,0,1,0-.947.947L4.22,5.5A1.988,1.988,0,0,0,3,7.333v6a2.006,2.006,0,0,0,2,2h6.667a2.008,2.008,0,0,0,1.593-.793l.6.6a.676.676,0,0,0,.947,0,.672.672,0,0,0,0-.947ZM5.333,9.333a1,1,0,1,1,1,1A1,1,0,0,1,5.333,9.333Zm4.333,3.333H7a.667.667,0,1,1,0-1.333H9.667a.667.667,0,0,1,0,1.333Zm-8,.667A.669.669,0,0,1,1,12.666v-4a.667.667,0,0,1,1.333,0v4A.669.669,0,0,1,1.667,13.333Zm13.333,0a.669.669,0,0,1-.667-.667v-4a.667.667,0,0,1,1.333,0v4A.669.669,0,0,1,15,13.333Zm-1.333-6V10a.484.484,0,0,1-.027.167.247.247,0,0,1-.027.093.659.659,0,0,1-.14.213.841.841,0,0,1-.213.14.247.247,0,0,1-.093.027.534.534,0,0,1-.333,0,.247.247,0,0,1-.093-.027.841.841,0,0,1-.213-.14L7.86,5.806a.659.659,0,0,1-.14-.213A.247.247,0,0,1,7.693,5.5a.484.484,0,0,1-.027-.167V4.486A1.333,1.333,0,1,1,9,4.486v.847h2.667A2.006,2.006,0,0,1,13.667,7.333Z" transform="translate(-0.333 -0.666)" fill="#fff"/>
  </g>
</svg>
