<svg id="Layer_1" data-name="Layer 1" xmlns="http://www.w3.org/2000/svg" xmlns:xlink="http://www.w3.org/1999/xlink" viewBox="0 0 24 24"><defs><clipPath id="clip-path"><rect width="24" height="24" fill="#0083e6" opacity="0"/></clipPath></defs><rect width="24" height="24" fill="#0083e6" opacity="0"/><g clip-path="url(#clip-path)"><circle cx="12" cy="12" r="10" fill="#2a00e5" opacity="0.3"/><path d="M17.76,12.59l-4.17,4.17A.84.84,0,0,1,13,17a.71.71,0,0,1-.32-.07.81.81,0,0,1-.52-.76V14.44c-2.8.28-3.57,2-3.6,2h0s0,0,0,0a.86.86,0,0,1-.13.2.43.43,0,0,0-.1.09l-.12.07L8.06,17a.44.44,0,0,1-.16,0,.45.45,0,0,1-.11,0A.81.81,0,0,1,7,16.36a.72.72,0,0,1,0-.19H7v-.52a6,6,0,0,1,5.2-6V7.83a.81.81,0,0,1,.52-.76.83.83,0,0,1,.91.17l4.17,4.17A.85.85,0,0,1,17.76,12.59Z" fill="#2a00e5"/></g></svg>