<svg id="share_solid" xmlns="http://www.w3.org/2000/svg" width="20" height="20" viewBox="0 0 20 20">
  <rect id="Rectangle_146588" data-name="Rectangle 146588" width="20" height="20" fill="#ff6d00" opacity="0"/>
  <g id="Group_78118" data-name="Group 78118" transform="translate(1.667 2.498)">
    <path id="Path_19675" data-name="Path 19675" d="M18.425,11.091l-6.667,6.667a.861.861,0,0,1-.592.242.836.836,0,0,1-.833-.833V14.291c-.125.008-.233.008-.275.017a9.588,9.588,0,0,0-6.575,3.375.821.821,0,0,1-.65.317A.836.836,0,0,1,2,17.166v-1.25a9.187,9.187,0,0,1,8.333-9.133V3.833a.861.861,0,0,1,.242-.592.84.84,0,0,1,1.183,0l6.667,6.667a.84.84,0,0,1,0,1.183Z" transform="translate(-2 -2.997)" fill="#ff6d00"/>
  </g>
</svg>
