<?xml version="1.0" encoding="UTF-8"?><svg id="Layer_1" xmlns="http://www.w3.org/2000/svg" xmlns:xlink="http://www.w3.org/1999/xlink" viewBox="0 0 24 24"><defs><clipPath id="clippath"><rect width="24" height="24" fill="#40464d" opacity="0"/></clipPath></defs><rect width="24" height="24" fill="#40464d" opacity="0"/><g clip-path="url(#clippath)"><g><path d="M14,10c-1.1,0-2-.9-2-2V2H7c-1.65,0-3,1.35-3,3v14c0,1.65,1.35,3,3,3h10c1.65,0,3-1.35,3-3V10h-6Zm-6-2h1c.55,0,1,.45,1,1,0,.18-.05,.35-.14,.5-.17,.3-.49,.5-.86,.5h-1c-.37,0-.69-.2-.86-.5-.09-.15-.14-.32-.14-.5,0-.55,.45-1,1-1Zm6.86,9.5c-.17,.3-.49,.5-.86,.5h-6c-.37,0-.69-.2-.86-.5-.09-.15-.14-.32-.14-.5,0-.55,.45-1,1-1h6c.55,0,1,.45,1,1,0,.18-.05,.35-.14,.5Zm0-4c-.17,.3-.49,.5-.86,.5h-6c-.37,0-.69-.2-.86-.5-.09-.15-.14-.32-.14-.5,0-.55,.45-1,1-1h6c.55,0,1,.45,1,1,0,.18-.05,.35-.14,.5Z" fill="#40464d" opacity=".4"/><path d="M10,9c0,.18-.05,.35-.14,.5-.17,.3-.49,.5-.86,.5h-1c-.37,0-.69-.2-.86-.5-.09-.15-.14-.32-.14-.5,0-.55,.45-1,1-1h1c.55,0,1,.45,1,1Z" fill="#40464d"/><path d="M15,13c0,.18-.05,.35-.14,.5-.17,.3-.49,.5-.86,.5h-6c-.37,0-.69-.2-.86-.5-.09-.15-.14-.32-.14-.5,0-.55,.45-1,1-1h6c.55,0,1,.45,1,1Z" fill="#40464d"/><path d="M15,17c0,.18-.05,.35-.14,.5-.17,.3-.49,.5-.86,.5h-6c-.37,0-.69-.2-.86-.5-.09-.15-.14-.32-.14-.5,0-.55,.45-1,1-1h6c.55,0,1,.45,1,1Z" fill="#40464d"/><path d="M20,10h-6c-1.1,0-2-.9-2-2V2l8,8Z" fill="#40464d"/></g></g></svg>