<?xml version="1.0" encoding="UTF-8"?><svg id="Layer_1" xmlns="http://www.w3.org/2000/svg" xmlns:xlink="http://www.w3.org/1999/xlink" viewBox="0 0 24 24"><defs><clipPath id="clippath-1"><rect width="24" height="24" fill="#6200ff" opacity="0"/></clipPath></defs><rect width="24" height="24" fill="#6200ff" opacity="0"/><g clip-path="url(#clippath-1)"><g><ellipse cx="12" cy="18" rx="9" ry="4" fill="#6200ff" opacity=".4"/><path d="M17,7c0,2.42-1.72,4.44-4,4.9-.32,.07-.66,.1-1,.1s-.68-.03-1-.1c-2.28-.46-4-2.48-4-4.9,0-2.76,2.24-5,5-5s5,2.24,5,5Z" fill="#6200ff" opacity=".7"/><path d="M13,11.9v5.1c0,.55-.45,1-1,1s-1-.45-1-1v-5.1c.32,.07,.66,.1,1,.1s.68-.03,1-.1Z" fill="#6200ff"/></g></g></svg>