<?xml version="1.0" encoding="UTF-8"?><svg id="Layer_1" xmlns="http://www.w3.org/2000/svg" xmlns:xlink="http://www.w3.org/1999/xlink" viewBox="0 0 24 24"><defs><clipPath id="clippath-1"><rect width="24" height="24" fill="#6200ff" opacity="0"/></clipPath></defs><rect width="24" height="24" fill="#6200ff" opacity="0"/><g clip-path="url(#clippath-1)"><g><path d="M8,20h-3c-.55,0-1-.45-1-1v-3c0-.55-.45-1-1-1s-1,.45-1,1v3c0,1.66,1.34,3,3,3h3c.55,0,1-.45,1-1s-.45-1-1-1Z" fill="#6200ff" opacity=".4"/><path d="M3,9c.55,0,1-.45,1-1v-3c0-.55,.45-1,1-1h3c.55,0,1-.45,1-1s-.45-1-1-1h-3c-1.66,0-3,1.34-3,3v3c0,.55,.45,1,1,1Z" fill="#6200ff" opacity=".4"/><path d="M19,2h-3c-.55,0-1,.45-1,1s.45,1,1,1h3c.55,0,1,.45,1,1v3c0,.55,.45,1,1,1s1-.45,1-1v-3c0-1.66-1.34-3-3-3Z" fill="#6200ff" opacity=".4"/><path d="M16,12c0-.55-.45-1-1-1h-2v-2c0-.55-.45-1-1-1s-1,.45-1,1v2h-2c-.55,0-1,.45-1,1s.45,1,1,1h2v2c0,.55,.45,1,1,1s1-.45,1-1v-2h2c.55,0,1-.45,1-1Z" fill="#6200ff"/><path d="M21,15c-.55,0-1,.45-1,1v3c0,.55-.45,1-1,1h-3c-.55,0-1,.45-1,1s.45,1,1,1h3c1.66,0,3-1.34,3-3v-3c0-.55-.45-1-1-1Z" fill="#6200ff" opacity=".4"/></g></g></svg>