<svg id="Layer_1" data-name="Layer 1" xmlns="http://www.w3.org/2000/svg" xmlns:xlink="http://www.w3.org/1999/xlink" viewBox="0 0 24 24"><defs><clipPath id="clip-path"><rect width="24" height="24" fill="#0083e6" opacity="0"/></clipPath></defs><rect width="24" height="24" fill="#0083e6" opacity="0"/><g clip-path="url(#clip-path)"><path d="M19.91,15.51H15.38a1,1,0,0,0,0,2h2.4A8,8,0,0,1,4,12a1,1,0,0,0-2,0,10,10,0,0,0,16.88,7.23V21a1,1,0,0,0,2,0V16.5A1,1,0,0,0,19.91,15.51Z" fill="#0083e6" opacity="0.7"/><path d="M12,2A10,10,0,0,0,5.12,4.77V3a1,1,0,0,0-2,0V7.5a1,1,0,0,0,1,1h4.5a1,1,0,0,0,0-2H6.22A8,8,0,0,1,20,12a1,1,0,0,0,2,0A10,10,0,0,0,12,2Z" fill="#0083e6"/></g></svg>