<?xml version="1.0" encoding="UTF-8"?><svg id="Layer_1" xmlns="http://www.w3.org/2000/svg" xmlns:xlink="http://www.w3.org/1999/xlink" viewBox="0 0 24 24"><defs><clipPath id="clippath"><rect width="24" height="24" fill="#d50000" opacity="0"/></clipPath></defs><rect width="24" height="24" fill="#d50000" opacity="0"/><g clip-path="url(#clippath)"><g><path d="M20.56,11.69c-.43-1.33-1.16-2.54-2.14-3.54-.07-.07-.15-.13-.23-.18-.47-.28-1.09-.12-1.37,.36-.01,.02-.02,.04-.03,.05-.34,.68-.82,1.29-1.4,1.78,.09-.5,.14-1,.14-1.51,0-3.13-1.68-6.03-4.4-7.58-.48-.27-1.09-.1-1.37,.38-.07,.13-.12,.27-.12,.43-.12,1.91-1.01,3.7-2.48,4.94l-.23,.19c-.75,.51-1.43,1.13-1.98,1.86-3.09,3.88-2.44,9.53,1.45,12.62,.67,.53,1.41,.96,2.2,1.29,.51,.2,1.1-.04,1.3-.55,.05-.12,.08-.25,.08-.38,0-.11-.02-.21-.05-.31-.22-.84-.29-1.72-.19-2.58,.95,1.78,2.46,3.2,4.31,4.01,.23,.1,.48,.12,.72,.04,4.72-1.52,7.32-6.59,5.79-11.32Zm-4.64,8.55c-.44,.3-.91,.55-1.4,.74-1.77-.89-3.07-2.49-3.58-4.4-.08-.32-.14-.64-.18-.97-.06-.42-.38-.76-.8-.84-.06-.01-.13-.02-.19-.02-.36,0-.69,.19-.87,.5-.83,1.43-1.24,3.06-1.2,4.72-3.05-2.37-3.6-6.76-1.23-9.8,.02-.03,.03-.05,.05-.07,.44-.57,.97-1.06,1.56-1.46,.03-.01,.05-.03,.08-.05,0,0,.29-.25,.3-.25,1.43-1.21,2.44-2.83,2.9-4.64,2.24,2.07,2.81,5.39,1.39,8.09-.26,.49-.07,1.1,.42,1.35,.24,.12,.51,.15,.76,.07,1.53-.48,2.88-1.42,3.87-2.69,2.16,3.2,1.32,7.56-1.88,9.72Z" fill="#d50000"/><path d="M15.92,20.24c-.44,.3-.91,.55-1.4,.74-1.77-.89-3.07-2.49-3.58-4.4-.08-.32-.14-.64-.18-.97-.06-.42-.38-.76-.8-.84-.06-.01-.13-.02-.19-.02-.36,0-.69,.19-.87,.5-.83,1.43-1.24,3.06-1.2,4.72-3.05-2.37-3.6-6.76-1.23-9.8,.02-.03,.03-.05,.05-.07,.44-.57,.97-1.06,1.56-1.46,.03-.01,.05-.03,.08-.05,0,0,.29-.25,.3-.25,1.43-1.21,2.44-2.83,2.9-4.64,2.24,2.07,2.81,5.39,1.39,8.09-.26,.49-.07,1.1,.42,1.35,.24,.12,.51,.15,.76,.07,1.53-.48,2.88-1.42,3.87-2.69,2.16,3.2,1.32,7.56-1.88,9.72Z" fill="#d50000" opacity=".4"/></g></g></svg>