<svg id="user_delivery" xmlns="http://www.w3.org/2000/svg" xmlns:xlink="http://www.w3.org/1999/xlink" width="20" height="20" viewBox="0 0 20 20">
  <defs>
    <clipPath id="clip-path">
      <rect id="Rectangle_145869" data-name="Rectangle 145869" width="20" height="20" fill="#6b7480" opacity="0"/>
    </clipPath>
  </defs>
  <rect id="Rectangle_145868" data-name="Rectangle 145868" width="20" height="20" fill="#6b7480" opacity="0"/>
  <g id="Group_73065" data-name="Group 73065" clip-path="url(#clip-path)">
    <path id="Path_19544" data-name="Path 19544" d="M13.6,11.287h0l-.15-.075a5,5,0,0,0,1.9-3.925V6.662l.233-1.992a2.5,2.5,0,0,0-2.042-2.742l-.692-.133a13.992,13.992,0,0,0-5,0l-.692.133A2.5,2.5,0,0,0,5.126,4.67l.225,1.992v.625a5,5,0,0,0,1.908,3.925l-.15.075h0a8.333,8.333,0,0,0-5,6.75.838.838,0,0,0,1.667.175,6.667,6.667,0,0,1,3.517-5.15l2.5,2.5a.833.833,0,0,0,1.183,0h0l2.5-2.5a6.667,6.667,0,0,1,3.542,5.15.833.833,0,0,0,.833.75h.092a.833.833,0,0,0,.733-.917A8.333,8.333,0,0,0,13.6,11.287ZM6.776,4.47a.833.833,0,0,1,.683-.875l.658-.117a12.192,12.192,0,0,1,4.467,0l.658.117a.833.833,0,0,1,.683.917l-.15,1.267H6.926Zm3.575,9.342L8.976,12.437a6.667,6.667,0,0,1,2.75,0Zm0-3.192A3.333,3.333,0,0,1,7.017,7.4h6.667A3.333,3.333,0,0,1,10.351,10.62Z" transform="translate(-0.351 -0.262)" fill="#6b7480"/>
  </g>
</svg>
