<svg id="user_circle" xmlns="http://www.w3.org/2000/svg" xmlns:xlink="http://www.w3.org/1999/xlink" width="16" height="16" viewBox="0 0 16 16">
  <defs>
    <clipPath id="clip-path">
      <rect id="Rectangle_145875" data-name="Rectangle 145875" width="16" height="16" fill="#009dff" opacity="0"/>
    </clipPath>
  </defs>
  <rect id="Rectangle_145874" data-name="Rectangle 145874" width="16" height="16" fill="#009dff" opacity="0"/>
  <g id="Group_73068" data-name="Group 73068" clip-path="url(#clip-path)">
    <path id="Path_19547" data-name="Path 19547" d="M8.67,2a6.667,6.667,0,0,0-4.9,11.18h0a6.667,6.667,0,0,0,9.42.38,5.107,5.107,0,0,0,.38-.38h0A6.667,6.667,0,0,0,8.67,2Zm0,12a5.333,5.333,0,0,1-3.7-1.5,4,4,0,0,1,7.4,0A5.333,5.333,0,0,1,8.67,14ZM7.337,7.333A1.333,1.333,0,1,1,8.67,8.667,1.333,1.333,0,0,1,7.337,7.333Zm5.94,4A5.333,5.333,0,0,0,10.67,9.087a2.667,2.667,0,1,0-4,0,5.333,5.333,0,0,0-2.607,2.247,5.273,5.273,0,0,1-.727-2.667A5.333,5.333,0,1,1,14,8.667,5.273,5.273,0,0,1,13.277,11.333Z" transform="translate(-0.67 -0.667)" fill="#009dff"/>
  </g>
</svg>
